<svg xmlns="http://www.w3.org/2000/svg" width="434.75" height="598.65" viewBox="0 0 434.75 598.65"><title>clare_clip</title><path d="M1,296q0-6,0-12a2.68,2.68,0,0,0,.5-0.85c1.3-9.4,7-15.68,14.84-20.09a148,148,0,0,1,16.2-7.66,17.85,17.85,0,0,0,8.17-6.25c8.87-12.53,20.24-22.42,32.85-31,7.72-5.24,15-10.87,20.86-18.35,5.56-7.07,13.81-10.92,22.11-13.8,6.84-2.37,14.16-3.39,21.17-5a18.32,18.32,0,0,0,2.35-12.9c-5.31-1-6.52-5.55-8.11-9.89a7.88,7.88,0,0,1-6.72-7.62c-0.26-3-1.94-4.79-4.3-6.27-11.24-7-16.08-17.92-17.44-30.48a111.85,111.85,0,0,1,1-30.86c2.27-13.36,7.1-25.95,11.76-38.56,1.68-4.54,4.29-8.86,8.35-11.6,6.25-4.22,11.43-9.57,16.93-14.6A19,19,0,0,1,143.13,17,105.84,105.84,0,0,1,175,1h12c3,2.33,6.39.87,9.6,1.21,2.43,0.25,5.41,0,7.15,1.28,4.06,3,8.48,3.59,13.19,3.66a40.19,40.19,0,0,1,15.9,3.9,30.68,30.68,0,0,0,5.58,2c5.07,1.17,9.35,3.34,12.07,8a12.89,12.89,0,0,0,2.79,2.78c8.66,7.72,15,17,17.76,28.32,1.4,5.64,2.41,11.39,3.35,17.14,1.13,6.9,2.08,13.83.74,20.86a12.64,12.64,0,0,0,.27,4.92c1.24,5.69,2.6,11.35,4,17a19.9,19.9,0,0,1-5,19.39,60.66,60.66,0,0,1-6.46,6.23,8.33,8.33,0,0,0-3.17,5.35c-1.37,7-2.85,14-4.57,21a50,50,0,0,1-3.75,10.77,81.16,81.16,0,0,1-7.54,11.69c-1.23,1.63-3.29,2.72-5.14,3.78a58.93,58.93,0,0,1-6.3,2.62c8.64,2.87,16.14,5.58,23.77,7.84,7.17,2.12,14.5,3.67,21.73,5.61,9.4,2.53,17.52,7.13,23.61,14.94s12.57,15.52,18.48,23.55a135.42,135.42,0,0,1,11.91,18.4c8.74,17.11,13.79,35.6,19.27,53.93,3.43,11.46,7,22.93,11.32,34.07,5.9,15.18,12.86,29.95,18.88,45.08a365.61,365.61,0,0,1,14.73,46.58c3.87,15.49,7.92,30.93,11.85,46.4,3.35,13.22,7.11,26.36,9.85,39.71,4.58,22.33,8.5,44.8,12.67,67.21a34,34,0,0,1,.28,3.43H44.12c0-1.45-.07-2.59,0-3.72,1.38-18.93,2.83-37.86,4.09-56.8A17,17,0,0,0,47,532.91c-1.36-4.1-3.43-8-4.37-12.18-2.49-11-4.78-22.1-6.72-33.23-3.36-19.35-6.21-38.78-9.62-58.12-3.13-17.77-5.54-35.54-4.25-53.64a38,38,0,0,0-.09-5c-0.43-7.08-1.76-13.79-6.52-19.52-2-2.39-3.29-5.38-4.67-8.21A80.11,80.11,0,0,1,3,311.72C2.68,306.46,1.68,301.24,1,296Z" transform="translate(-1 -1)"/></svg>