<svg xmlns="http://www.w3.org/2000/svg" xmlns:xlink="http://www.w3.org/1999/xlink" viewBox="0 0 237.12 241.46">
    <defs>
        <linearGradient id="a" x1="24.38" y1="87.1" x2="77.94" y2="33.54" gradientUnits="userSpaceOnUse">
            <stop offset="0" stop-color="#007c30"/>
            <stop offset="1" stop-color="#66af24"/>
        </linearGradient>
        <linearGradient id="b" x1="67.68" y1="43.8" x2="93.29" y2="18.19" gradientUnits="userSpaceOnUse">
            <stop offset="0" stop-color="#fff" stop-opacity="0"/>
            <stop offset="1" stop-color="#fff"/>
        </linearGradient>
        <linearGradient id="c" x1="53.76" y1="116.48" x2="107.33" y2="62.92" xlink:href="#a"/>
        <linearGradient id="d" x1="97.06" y1="73.19" x2="122.67" y2="47.57" xlink:href="#b"/>
        <linearGradient id="e" x1="83.14" y1="145.86" x2="136.71" y2="92.3" xlink:href="#a"/>
        <linearGradient id="f" x1="126.44" y1="102.57" x2="152.05" y2="76.96" xlink:href="#b"/>
        <linearGradient id="g" x1="137.48" y1="150.29" x2="195.33" y2="92.45" gradientUnits="userSpaceOnUse">
            <stop offset="0" stop-color="#f29400"/>
            <stop offset="1" stop-color="#fc0"/>
        </linearGradient>
        <linearGradient id="h" x1="179.62" y1="108.15" x2="215.62" y2="72.15" xlink:href="#b"/>
        <linearGradient id="i" x1="78.72" y1="91.53" x2="136.56" y2="33.68" xlink:href="#g"/>
        <linearGradient id="j" x1="120.86" y1="49.39" x2="156.86" y2="13.38" xlink:href="#b"/>
        <linearGradient id="k" x1="108.09" y1="120.92" x2="165.94" y2="63.07" xlink:href="#g"/>
        <linearGradient id="l" x1="150.24" y1="78.77" x2="186.24" y2="42.77" xlink:href="#b"/>
        <linearGradient id="m" x1="10.65" y1="208.76" x2="10.65" y2="181.76" xlink:href="#a"/>
        <linearGradient id="n" x1="58.44" y1="208.76" x2="58.44" y2="181.76" xlink:href="#a"/>
        <linearGradient id="o" x1="104.93" y1="208.76" x2="104.93" y2="181.76" xlink:href="#a"/>
        <linearGradient id="p" x1="28.35" y1="208.76" x2="28.35" y2="181.76" xlink:href="#a"/>
        <linearGradient id="q" x1="40.74" y1="208.76" x2="40.74" y2="181.76" xlink:href="#a"/>
        <linearGradient id="r" x1="81.11" y1="208.76" x2="81.11" y2="181.77" xlink:href="#a"/>
        <linearGradient id="s" x1="232.27" y1="208.75" x2="232.27" y2="181.77" xlink:href="#a"/>
        <linearGradient id="t" x1="227.66" y1="208.76" x2="227.66" y2="181.77" xlink:href="#a"/>
        <linearGradient id="u" x1="122.25" y1="208.76" x2="122.25" y2="181.77" xlink:href="#a"/>
        <linearGradient id="v" x1="147.77" y1="208.76" x2="147.77" y2="181.76" xlink:href="#a"/>
        <linearGradient id="w" x1="139.14" y1="208.76" x2="139.14" y2="181.77" xlink:href="#a"/>
        <linearGradient id="x" x1="164.96" y1="208.76" x2="164.96" y2="181.76" xlink:href="#a"/>
        <linearGradient id="y" x1="182.02" y1="208.76" x2="182.02" y2="181.75" xlink:href="#a"/>
        <linearGradient id="z" x1="194.29" y1="208.76" x2="194.29" y2="181.77" xlink:href="#a"/>
        <linearGradient id="aa" x1="210.71" y1="208.76" x2="210.71" y2="181.76" xlink:href="#a"/>
        <linearGradient id="ab" x1="82.94" y1="243.3" x2="82.94" y2="216.16" xlink:href="#g"/>
        <linearGradient id="ac" x1="123.53" y1="243.3" x2="123.53" y2="216.14" xlink:href="#g"/>
        <linearGradient id="ad" x1="106.48" y1="243.3" x2="106.48" y2="216.16" xlink:href="#g"/>
        <linearGradient id="ae" x1="177.66" y1="243.3" x2="177.66" y2="216.16" xlink:href="#g"/>
        <linearGradient id="af" x1="172.73" y1="243.3" x2="172.73" y2="216.16" xlink:href="#g"/>
        <linearGradient id="ag" x1="42.28" y1="243.31" x2="42.28" y2="216.16" xlink:href="#g"/>
        <linearGradient id="ah" x1="33.65" y1="243.31" x2="33.65" y2="216.16" xlink:href="#g"/>
        <linearGradient id="ai" x1="53.08" y1="243.3" x2="53.08" y2="216.16" xlink:href="#g"/>
        <linearGradient id="aj" x1="65.47" y1="243.3" x2="65.47" y2="216.16" xlink:href="#g"/>
        <linearGradient id="ak" x1="139.45" y1="243.3" x2="139.45" y2="216.16" xlink:href="#g"/>
        <linearGradient id="al" x1="155.41" y1="243.3" x2="155.41" y2="216.14" xlink:href="#g"/>
        <linearGradient id="am" x1="211.05" y1="243.31" x2="211.05" y2="216.16" xlink:href="#g"/>
        <linearGradient id="an" x1="202.42" y1="243.31" x2="202.42" y2="216.16" xlink:href="#g"/>
    </defs>
    <title>logo-green</title>
    <polygon points="93.19 50.35 93.19 50.35 93.19 50.35 93.19 50.35" style="fill:#1a171b"/>
    <polygon points="93.19 50.35 93.19 50.35 93.19 50.35 93.19 50.35" style="fill:#1a171b"/>
    <polygon points="146.6 50.35 146.6 50.35 146.6 50.35 146.6 50.35" style="fill:#1a171b"/>
    <polygon points="146.6 50.35 146.6 50.35 146.6 50.35 146.6 50.35" style="fill:#1a171b"/>
    <polygon points="63.81 79.73 63.81 79.73 63.81 79.73 63.81 79.73" style="fill:#1a171b"/>
    <polygon points="63.81 79.73 63.81 79.73 63.81 79.73 63.81 79.73" style="fill:#1a171b"/>
    <path d="M87.84,47.32l0-.06A35.68,35.68,0,0,0,87.8,0L69.1,18.7,34.42,53.38l0,0a35.68,35.68,0,0,0,0,47.27L58.1,77.06Z"
          transform="translate(0)" style="fill:url(#a)"/>
    <path d="M35,93a30.55,30.55,0,0,1,3.23-36.2l0.62-.69L87.24,7.71A30.58,30.58,0,0,1,84,43.91l-0.63.7Z"
          transform="translate(0)" style="opacity:0.26;fill:url(#b)"/>
    <path d="M87.48,106.44l13-13c-4.6,1-9.67,1.85-14.79.87A39,39,0,0,1,63.81,82.76L40.16,106.39a35.67,35.67,0,0,0,47.28,0Z"
          transform="translate(0)" style="fill:url(#c)"/>
    <path d="M63.81,110.29a30.51,30.51,0,0,1-15.92-4.45L64,89.75a43.22,43.22,0,0,0,20.81,9.5q1.18,0.22,2.39.36l-2.52,2.52-0.56.49a30.51,30.51,0,0,1-20.28,7.67h0Z"
          transform="translate(0)" style="opacity:0.26;fill:url(#d)"/>
    <path d="M146.57,58.75L121.41,83.91h0L93.19,112.14l0,0.05a35.68,35.68,0,0,0,0,47.26l20.06-20.05,2-2,1.57-1.57,26.73-26.73,1.31-1.49c7.25-8.24,11-17.49,10.75-26.73A33.91,33.91,0,0,0,146.57,58.75Z"
          transform="translate(0)" style="fill:url(#e)"/>
    <path d="M93.79,151.75A30.58,30.58,0,0,1,97,115.55l0.61-.69,48.45-48.44A28.08,28.08,0,0,1,150.6,81c0.18,8-3.1,16-9.5,23.27l-1.2,1.37Z"
          transform="translate(0)" style="opacity:0.26;fill:url(#f)"/>
    <path d="M202.65,61.44L179,85.08h0l-29.74,29.74,0,0a35.69,35.69,0,0,0,0,47.28L173,138.49l29.74-29.74,0-.05A35.68,35.68,0,0,0,202.65,61.44Z"
          transform="translate(0)" style="fill:url(#g)"/>
    <path d="M149.88,154.42a30.59,30.59,0,0,1,3.23-36.21l0.62-.7L202.1,69.15a30.57,30.57,0,0,1-3.22,36.2l-0.61.69Z"
          transform="translate(0)" style="opacity:0.26;fill:url(#h)"/>
    <path d="M170.24,23.69a35.68,35.68,0,0,0-47.27,0l-0.05,0L94.7,51.87h0L69.54,77a33.84,33.84,0,0,0,22.11,9.09c9.25,0.22,18.49-3.5,26.73-10.76L119.88,74l28.48-28.47Z"
          transform="translate(0)" style="fill:url(#i)"/>
    <path d="M91.77,81.06a28.12,28.12,0,0,1-14.58-4.53L125.77,28l0.57-.49a30.64,30.64,0,0,1,36.19-3.22L116.42,70.36,115,71.56c-7.07,6.22-14.89,9.51-22.64,9.51H91.77Z"
          transform="translate(0)" style="opacity:0.26;fill:url(#j)"/>
    <path d="M163.82,75c1,5.12.18,10.19-.87,14.78l13-13,0,0a35.68,35.68,0,0,0,0-47.27L152.31,53A39,39,0,0,1,163.82,75Z"
          transform="translate(0)" style="fill:url(#k)"/>
    <path d="M169.15,76.39c-0.09-.79-0.21-1.58-0.36-2.39a43.28,43.28,0,0,0-9.5-20.81L175.38,37.1a30.57,30.57,0,0,1-3.22,36.2l-0.61.69Z"
          transform="translate(0)" style="opacity:0.26;fill:url(#l)"/>
    <path d="M14.34,187.49a2.25,2.25,0,0,0-2-1.53H8.6c-2.1,0-2.1,3.56,0,3.56H12c6.05,0,9.19,4.21,9.26,8.46s-3.1,8.6-9.17,8.6H9.41c-4.21,0-8.27-2.83-9.06-7l6.76-1.26a2.32,2.32,0,0,0,2,1.55h3.75c2.1,0,2.07-3.58,0-3.58H9.41c-12.55,0-12.2-17.06-1-17.06H12c4.21,0,8.27,2.82,9,7Z"
          transform="translate(0)" style="fill:url(#m)"/>
    <path d="M62.14,187.49a2.25,2.25,0,0,0-2-1.53H56.39c-2.1,0-2.1,3.56,0,3.56h3.44c6.05,0,9.19,4.21,9.26,8.46s-3.1,8.6-9.17,8.6H57.21c-4.21,0-8.27-2.83-9.06-7l6.76-1.26a2.33,2.33,0,0,0,2,1.55h3.74c2.11,0,2.07-3.58,0-3.58H57.21c-12.55,0-12.2-17.06-1-17.06h3.66c4.21,0,8.27,2.82,9,7Z"
          transform="translate(0)" style="fill:url(#n)"/>
    <path d="M106.8,179.19H103a9.58,9.58,0,0,0-9.54,9.54v17.7h7v-17.7a2.53,2.53,0,0,1,2.49-2.54h3.77a2.5,2.5,0,0,1,2.49,2.54V193h-6.44v7.14h6.44v6.29h7.09v-17.7A9.61,9.61,0,0,0,106.8,179.19Z"
          transform="translate(0)" style="fill:url(#o)"/>
    <path d="M30.21,197.18v-11h0a7.34,7.34,0,0,0-6.88-6.88v17.92a9.15,9.15,0,0,0,9.37,9.26h0.72V199.5h-1A2.31,2.31,0,0,1,30.21,197.18Z"
          transform="translate(0)" style="fill:url(#p)"/>
    <path d="M38.9,186.14h0v11a2.31,2.31,0,0,1-2.15,2.32h-1v6.94h0.72a9.15,9.15,0,0,0,9.37-9.26V179.25A7.35,7.35,0,0,0,38.9,186.14Z"
          transform="translate(0)" style="fill:url(#q)"/>
    <path d="M71,179.39v6.78h6.67v13.45h0a7.35,7.35,0,0,0,6.88,6.88V186.17h6.67v-6.78H71Z" transform="translate(0)"
          style="fill:url(#r)"/>
    <rect x="227.41" y="189.78" width="9.71" height="6.42" style="fill:url(#s)"/>
    <path d="M227.58,179.39a9.44,9.44,0,0,0-9.37,9.41v8.27a9.46,9.46,0,0,0,9.37,9.37h9.54v-6.71h-9.54a2.63,2.63,0,0,1-2.47-2.62V188.7a2.55,2.55,0,0,1,2.47-2.53h9.54v-6.77h-9.54Z"
          transform="translate(0)" style="fill:url(#t)"/>
    <path d="M118.68,179.34v20h0a7.61,7.61,0,0,0,7.13,7.13V179.34h-7.13Z" transform="translate(0)"
          style="fill:url(#u)"/>
    <path d="M144.33,186.1h0v4.2l6.87,12.12s0-.05,0-0.09V179.22A7.34,7.34,0,0,0,144.33,186.1Z" transform="translate(0)"
          style="fill:url(#v)"/>
    <path d="M136.51,181.21c-1.87-3.31-8.37-4-8.37,2.5l0,15.7v7a7.52,7.52,0,0,0,7-7h0v-7.55l7.3,12.68a4.85,4.85,0,0,0,7.71.73l-11.11-19.6Z"
          transform="translate(0)" style="fill:url(#w)"/>
    <path d="M166.83,179.19h-3.77a9.58,9.58,0,0,0-9.54,9.54v17.7h7.05v-17.7a2.53,2.53,0,0,1,2.49-2.54h3.77a2.5,2.5,0,0,1,2.49,2.54V193h-6.44v7.14h6.49a7.61,7.61,0,0,0,7,6.34V188.73A9.61,9.61,0,0,0,166.83,179.19Z"
          transform="translate(0)" style="fill:url(#x)"/>
    <path d="M178.72,199.75h0v6.6a7.06,7.06,0,0,0,6.6-6.6v-20.4h-6.6v20.4Z" transform="translate(0)"
          style="fill:url(#y)"/>
    <path d="M197.17,192.42a6.15,6.15,0,0,0,2.68-5.09c0-4.7-3.8-8-8.45-8h-3.76v6.85h3.69c0.89,0,1.59.75,1.59,2.09a1.64,1.64,0,0,1-1.59,1.81h-3.69v5.65h4.85a1.81,1.81,0,0,1,1.58,1.84,1.93,1.93,0,0,1-1.58,2h-4.85v6.87h4.89c4.65,0,8.58-3.33,8.41-8C200.86,196.35,199.85,193.51,197.17,192.42Z"
          transform="translate(0)" style="fill:url(#z)"/>
    <path d="M212.06,199.39v0a1.88,1.88,0,0,1-2-1.79V179.13c-6.87,0-6.94,0-7.05,0v0h0l0,18.53a8.5,8.5,0,0,0,8.24,8.75h7.13A7.62,7.62,0,0,0,212.06,199.39Z"
          transform="translate(0)" style="fill:url(#aa)"/>
    <path d="M72.85,213.92v6.78h6.67v13.45h0A7.34,7.34,0,0,0,86.37,241V220.69H93v-6.78H72.85Z" transform="translate(0)"
          style="fill:url(#ab)"/>
    <path d="M120,213.86v20h0a7.61,7.61,0,0,0,7.13,7.13V213.86H120Z" transform="translate(0)" style="fill:url(#ac)"/>
    <path d="M117.64,224.9V223.3a9.55,9.55,0,0,0-9.49-9.54h-3.29a9.58,9.58,0,0,0-9.54,9.41V241a7.53,7.53,0,0,0,7.05-7.05v-5.91c0-1.41,0-3.41,0-4.8a2.53,2.53,0,0,1,2.52-2.52h3.29a2.5,2.5,0,0,1,2.48,2.52v2.28a2.51,2.51,0,0,1-2.48,2.52h-3.47v6a7.1,7.1,0,0,1,5.92,7h7c0-3.37-1.37-7.31-4.64-9C115.67,231.21,117.64,227.64,117.64,224.9Z"
          transform="translate(0)" style="fill:url(#ad)"/>
    <path d="M185.81,218.44l-5.07,5.07a6.76,6.76,0,0,1-5.57,10.73,6.67,6.67,0,0,1-3.89-1.27l-5.09,5.09A13.92,13.92,0,0,0,185.81,218.44Z"
          transform="translate(0)" style="fill:url(#ae)"/>
    <path d="M169.65,231.33a6.64,6.64,0,0,1-1.22-3.84,6.79,6.79,0,0,1,10.66-5.6l5.08-5.08a13.92,13.92,0,0,0-19.62,19.61Z"
          transform="translate(0)" style="fill:url(#af)"/>
    <path d="M38.84,220.72h0v4.19L45.71,237s0-.06,0-0.1V213.84A7.35,7.35,0,0,0,38.84,220.72Z" transform="translate(0)"
          style="fill:url(#ag)"/>
    <path d="M31,215.82c-1.87-3.31-8.37-4-8.37,2.51l0,15.28v7a7.51,7.51,0,0,0,7-7h0v-7.13L37,239.15a4.85,4.85,0,0,0,7.71.73L33.59,220.33Z"
          transform="translate(0)" style="fill:url(#ah)"/>
    <path d="M54.94,231.76v-11h0A7.35,7.35,0,0,0,48,213.84v17.92A9.15,9.15,0,0,0,57.41,241h0.71v-6.94h-1A2.31,2.31,0,0,1,54.94,231.76Z"
          transform="translate(0)" style="fill:url(#ai)"/>
    <path d="M63.63,220.72h0v11a2.31,2.31,0,0,1-2.15,2.32h-1V241h0.71a9.15,9.15,0,0,0,9.37-9.26V213.84A7.36,7.36,0,0,0,63.63,220.72Z"
          transform="translate(0)" style="fill:url(#aj)"/>
    <path d="M129.36,213.92v6.78H136v13.45h0a7.34,7.34,0,0,0,6.88,6.88V220.69h6.67v-6.78H129.36Z"
          transform="translate(0)" style="fill:url(#ak)"/>
    <path d="M151.85,213.86v20h0A7.62,7.62,0,0,0,159,241V213.86h-7.13Z" transform="translate(0)" style="fill:url(#al)"/>
    <path d="M207.61,220.72h0v4.19L214.48,237s0-.06,0-0.09V213.84A7.35,7.35,0,0,0,207.61,220.72Z"
          transform="translate(0)" style="fill:url(#am)"/>
    <path d="M199.79,215.82c-1.87-3.31-8.37-4-8.37,2.51l0,15.66v7a7.52,7.52,0,0,0,7-7h0v-7.51l7.3,12.68a4.85,4.85,0,0,0,7.71.73l-11-19.42Z"
          transform="translate(0)" style="fill:url(#an)"/>
</svg>
