<?xml version="1.0" standalone="no"?>
<!DOCTYPE svg PUBLIC "-//W3C//DTD SVG 20010904//EN"
 "http://www.w3.org/TR/2001/REC-SVG-20010904/DTD/svg10.dtd">
<svg version="1.0" xmlns="http://www.w3.org/2000/svg"
 width="231.000000pt" height="231.000000pt" viewBox="0 0 231.000000 231.000000"
 preserveAspectRatio="xMidYMid meet">
<metadata>
Created by potrace 1.11, written by Peter Selinger 2001-2013
</metadata>
<g transform="translate(0.000000,231.000000) scale(0.100000,-0.100000)"
fill="#000000" stroke="none">
<path d="M427 1815 c-380 -380 -396 -401 -420 -538 -19 -114 17 -258 85 -339
l23 -28 347 348 c311 311 350 354 377 412 44 93 56 190 38 293 -9 47 -48 132
-80 170 l-23 29 -347 -347z"/>
<path d="M1389 1965 c-106 -29 -143 -59 -498 -412 -329 -328 -343 -344 -327
-361 24 -28 111 -72 167 -87 55 -15 186 -13 216 3 10 6 21 10 26 11 20 2 82
33 124 63 27 18 196 179 376 359 l328 327 -44 31 c-76 52 -143 74 -237 76 -47
2 -106 -3 -131 -10z"/>
<path d="M1718 1652 l-147 -147 35 -39 c37 -43 86 -138 103 -200 5 -21 9 -78
7 -126 l-4 -87 95 95 c107 110 147 179 165 287 19 113 -17 257 -85 337 l-22
26 -147 -146z"/>
<path d="M1149 1083 c-372 -375 -387 -393 -410 -519 -21 -113 4 -243 66 -335
14 -22 29 -39 34 -39 11 0 621 610 666 665 104 130 137 299 84 439 -20 54 -72
136 -87 136 -4 0 -163 -156 -353 -347z"/>
<path d="M1853 1057 c-216 -217 -352 -361 -371 -393 -81 -139 -74 -323 19
-469 l31 -49 357 360 c348 349 359 361 386 429 37 92 43 208 16 294 -19 62
-60 139 -83 159 -11 9 -84 -59 -355 -331z"/>
<path d="M322 985 l-142 -144 46 -32 c136 -93 313 -103 458 -26 35 18 98 69
152 122 l94 91 -95 -3 c-125 -3 -218 28 -312 103 -23 19 -45 34 -50 34 -4 0
-72 -65 -151 -145z"/>
</g>
</svg>
